<?xml version="1.0" encoding="UTF-8" standalone="no"?>
<svg
   xmlns:dc="http://purl.org/dc/elements/1.1/"
   xmlns:cc="http://creativecommons.org/ns#"
   xmlns:rdf="http://www.w3.org/1999/02/22-rdf-syntax-ns#"
   xmlns:svg="http://www.w3.org/2000/svg"
   xmlns="http://www.w3.org/2000/svg"
   xmlns:sodipodi="http://sodipodi.sourceforge.net/DTD/sodipodi-0.dtd"
   xmlns:inkscape="http://www.inkscape.org/namespaces/inkscape"
   inkscape:version="1.0 (4035a4fb49, 2020-05-01)"
   sodipodi:docname="Logo_of_National_Research_and_Innovation_Agency_of_Indonesia.svg"
   viewBox="0 0 448.11909 600.00098"
   height="600.00098"
   width="448.11911"
   xml:space="preserve"
   id="svg2"
   version="1.1"><metadata
     id="metadata8"><rdf:RDF><cc:Work
         rdf:about=""><dc:format>image/svg+xml</dc:format><dc:type
           rdf:resource="http://purl.org/dc/dcmitype/StillImage" /><dc:title></dc:title></cc:Work></rdf:RDF></metadata><defs
     id="defs6" /><sodipodi:namedview
     inkscape:current-layer="g12"
     inkscape:window-maximized="1"
     inkscape:window-y="-8"
     inkscape:window-x="-8"
     inkscape:cy="331.64127"
     inkscape:cx="273.12359"
     inkscape:zoom="0.62013544"
     fit-margin-bottom="0"
     fit-margin-right="0"
     fit-margin-left="0"
     fit-margin-top="0"
     showgrid="false"
     inkscape:document-rotation="0"
     id="namedview4"
     inkscape:window-height="745"
     inkscape:window-width="1366"
     inkscape:pageshadow="2"
     inkscape:pageopacity="0"
     guidetolerance="10"
     gridtolerance="10"
     objecttolerance="10"
     borderopacity="1"
     bordercolor="#666666"
     pagecolor="#ffffff" /><g
     transform="matrix(1.3333333,0,0,-1.3333333,-749.29509,869.71617)"
     inkscape:label="ink_ext_XXXXXX"
     inkscape:groupmode="layer"
     id="g10"><g
       transform="scale(0.1)"
       id="g12"><path
         id="path14"
         style="opacity:0.995;fill:#ec2425;fill-opacity:1;fill-rule:nonzero;stroke:none;stroke-width:0.66264"
         d="m 6786.8096,4456.3014 c 16.632,-39.7242 86.3213,-82.7179 150.6167,-108.5606 19.1635,-7.7058 37.5978,-12.704 55.6811,-23.244 56.7017,-33.08 59.7365,-85.0809 2.2001,-136.9578 -98.9248,-89.1812 -248.9584,-92.8987 -364.0267,-17.6167 -319.0995,187.2146 -588.2999,592.8447 -598.5009,1016.659 144.1439,-107.7378 317.7746,-108.3076 482.9487,-107.5058 91.7801,0.444 182.7188,15.9561 274.8381,12.7291 277.9619,-9.7274 428.8634,-253.5503 403.4116,-504.7 -3.6709,-36.2148 -11.8412,-87.3721 -29.0365,-119.7941 -21.4693,-40.442 -57.0198,-56.925 -114.8876,-59.5497 -91.5759,-4.1441 -177.5594,16.3591 -263.2446,48.5406" /><path
         id="path16"
         style="opacity:0.995;fill:#ec2425;fill-opacity:1;fill-rule:nonzero;stroke:none;stroke-width:0.66264"
         d="m 8566.9828,5386.1865 c -100.4753,815.3845 -852.6975,1291.0431 -1604.7143,1091.1861 173.2523,-81.5106 256.7442,-224.3945 312.9819,-395.0824 55.9463,-169.7735 77.515,-345.3517 72.9296,-522.9773 -3.0747,-119.6319 78.2239,-257.4732 255.7436,-258.2086 311.2061,-1.2723 622.4189,0.1523 933.6183,-1.2922 27.009,-1.3518 33.4762,12.4907 33.9269,30.0107 0.4108,16.155 -2.3922,39.3539 -4.486,56.3637 z m -682.5396,765.5875 c 10.39,0 14.0941,-6.3877 15.9164,-13.869 2.6505,-10.8869 4.0022,-20.0976 7.3155,-31.4022 13.1002,-44.7674 27.3735,-89.1772 49.194,-130.2937 44.1976,-83.3063 120.2083,-121.8452 204.4688,-149.0264 20.0712,-6.4806 30.362,-7.2824 50.7711,-10.6286 13.4846,-2.2132 24.8223,-6.7787 24.988,-21.3303 -0.1657,-14.5579 -11.5034,-19.1235 -24.988,-21.3368 -20.4091,-3.3463 -30.6999,-4.1481 -50.7711,-10.6287 -84.2605,-27.1878 -160.2712,-65.7266 -204.4688,-149.0263 -21.8205,-41.1165 -36.0938,-85.5261 -49.194,-130.2938 -3.3133,-11.2979 -4.665,-20.5151 -7.3155,-31.4023 -1.8223,-7.481 -5.5264,-13.8688 -15.9164,-13.8688 -10.3835,0 -14.0877,6.3878 -15.9099,13.8688 -2.6506,10.8872 -4.0024,20.1044 -7.3155,31.4023 -13.1003,44.7677 -27.38,89.1773 -49.194,130.2938 -44.2043,83.2997 -120.2151,121.8385 -204.469,149.0263 -20.0779,6.4806 -30.3685,7.2824 -50.771,10.6287 -13.4913,2.2133 -24.8224,6.7789 -24.988,21.3368 0.1656,14.5516 11.4967,19.1171 24.988,21.3303 20.4025,3.3462 30.6931,4.148 50.771,10.6286 84.2539,27.1812 160.2647,65.7201 204.469,149.0264 21.814,41.1165 36.0937,85.5263 49.194,130.2937 3.3131,11.3046 4.6649,20.5153 7.3155,31.4022 1.8222,7.4813 5.5264,13.869 15.9099,13.869" /><path
         id="path18"
         style="opacity:0.995;fill:#ec2425;fill-opacity:1;fill-rule:nonzero;stroke:none;stroke-width:0.66264"
         d="M 8566.9828,5115.0432 C 8466.5075,4299.6613 7714.2853,3823.9988 6962.2685,4023.8603 c 173.2456,81.5121 256.7442,224.3945 312.9819,395.0824 55.9463,169.7716 77.515,345.3483 72.9361,522.9807 -3.0812,119.632 78.2174,257.4731 255.7371,258.2087 311.2127,1.2655 622.4189,-0.1591 933.6183,1.2921 27.009,1.3452 33.4762,-12.4973 33.9269,-30.0106 0.4108,-16.1617 -2.3922,-39.3606 -4.486,-56.3704" /><path
         id="path20"
         style="opacity:0.995;fill:#ec2425;fill-opacity:1;fill-rule:evenodd;stroke:none;stroke-width:0.66264"
         d="m 6640.6431,6179.4588 c 254.7059,0 461.1893,-206.4834 461.1893,-461.1933 0,-254.71 -206.4834,-461.1866 -461.1893,-461.1866 -254.708,0 -461.1879,206.4766 -461.1879,461.1866 0,254.7099 206.4799,461.1933 461.1879,461.1933" /><path
         id="path22"
         style="fill:#4f4c4c;fill-opacity:1;fill-rule:evenodd;stroke:none;stroke-width:0.627114"
         d="m 7168.1775,3563.7576 159.4062,-107.2929 0.1129,-19.8043 v -170.5688 l -0.163,-30.6471 -81.9702,-63.5392 80.7912,-79.3237 v -275.3471 l -115.3514,-0.3198 v 225.5855 l -77.0849,76.8592 H 6784.5279 V 2816.9147 H 6668.612 v 360.3525 17.6344 252.6267 l 0.276,61.1374 h -0.276 v 55.0919 h 115.9159 377.667 z m -29.7941,-326.714 h -353.9308 l 0.075,210.4847 h 350.8955 l 76.8277,-48.5073 0.1568,-105.0479 -74.0245,-56.9295" /><path
         id="path24"
         style="fill:#4f4c4c;fill-opacity:1;fill-rule:evenodd;stroke:none;stroke-width:0.627114"
         d="m 7830.893,3563.7576 v -746.8429 h -115.9157 v 746.8429 h 115.9157" /><path
         id="path26"
         style="fill:#4f4c4c;fill-opacity:1;fill-rule:evenodd;stroke:none;stroke-width:0.627114"
         d="M 8980.5566,3563.3688 V 3424.971 l 0.05,-57.2807 v -512.2645 l -89.3951,-38.2728 -26.5708,26.4956 -456.1065,456.1065 -50.9343,50.9405 -25.8935,25.8936 v -9.0619 -551.0014 h -115.9158 v 551.0014 57.4437 102.3513 l 92.8568,36.8305 23.059,-23.636 107.8574,-107.8574 50.9342,-50.9342 374.1427,-374.149 v 359.9511 57.4437 138.3978 h 115.9158" /><path
         id="path28"
         style="fill:#4f4c4c;fill-opacity:1;fill-rule:evenodd;stroke:none;stroke-width:0.627114"
         d="m 5665.3923,2816.9147 h 70.2367 l 60.4602,0.3198 h 315.4698 l 24.5703,7.8766 124.2502,80.4713 18.4121,38.4295 v 170.5689 l -15.7469,35.4508 -50.9969,37.7836 -3.7125,2.521 3.7125,2.5273 50.9969,37.7836 15.7469,35.4508 v 170.5625 l -18.4121,38.4295 -124.2502,80.4776 -24.5703,7.8765 h -25.0344 -290.4354 l -60.4602,0.3136 h -70.2367 l -45.679,-45.3591 v -70.8702 -244.123 -26.1319 -244.123 -70.8765 z m 497.9601,487.6127 v 94.4936 l -76.8278,48.5073 H 5735.629 v -197.1898 l 356.4017,0.1254 z m 0,-228.3762 v -94.4936 l -76.8278,-48.5072 H 5735.629 v 197.1898 l 356.4017,-0.1317 71.3217,-54.0573" /><path
         id="path30"
         style="fill:#4f4c4c;fill-opacity:1;fill-rule:nonzero;stroke:none;stroke-width:0.627114"
         d="m 5655.1891,2375.7461 h 37.1315 c 7.958,0 14.248,2.2514 18.525,6.1959 4.3458,4.0009 6.6912,9.8331 6.6912,16.8756 0,7.0174 -2.3328,12.7681 -6.6474,16.7064 -4.2832,3.9131 -10.5794,6.1207 -18.5688,6.1207 h -37.1315 z m 3147.775,-170.2759 c 0,1.4944 0.4013,2.6432 1.2543,3.493 0.8465,0.8454 2.0004,1.2398 3.5055,1.2398 h 25.9563 c 1.505,0 2.6589,-0.3944 3.5055,-1.2323 0.8529,-0.8573 1.2543,-2.0061 1.2543,-3.5005 v -147.4013 h 82.1833 c 1.4988,0 2.6464,-0.392 3.493,-1.2392 0.8466,-0.8554 1.2416,-1.9993 1.2416,-3.4887 v -22.7962 c 0,-1.5019 -0.395,-2.6508 -1.2416,-3.5005 -0.8403,-0.8623 -1.988,-1.2618 -3.493,-1.2618 h -112.8994 c -1.5051,0 -2.659,0.3945 -3.5119,1.2517 -0.8529,0.8453 -1.2479,1.9961 -1.2479,3.5106 z M 8653.391,2095.4606 h 42.9009 l -21.3344,62.5765 z m 4.3334,110.5953 c 0.3888,1.3596 1.0285,2.3737 1.9629,3.0866 0.9595,0.7199 2.1071,1.0605 3.4867,1.0605 h 24.3822 c 1.3797,0 2.5273,-0.3406 3.4805,-1.0605 0.9407,-0.7155 1.5866,-1.7345 1.9754,-3.1092 l 60.943,-174.9059 c 0.4641,-1.5678 0.3763,-2.8145 -0.3073,-3.8041 -0.7274,-1.051 -1.8876,-1.5408 -3.5369,-1.5408 h -25.9813 c -1.3797,0 -2.5273,0.338 -3.4868,1.0679 -0.9218,0.7106 -1.5553,1.7196 -1.9503,3.0717 l -11.4198,33.4967 h -64.8687 l -11.426,-33.5456 c -0.4139,-1.3302 -1.0411,-2.3223 -1.9504,-3.0228 -0.9531,-0.7299 -2.1008,-1.0679 -3.4929,-1.0679 h -25.7117 c -1.6493,0 -2.8095,0.4872 -3.537,1.5408 -0.6773,0.9921 -0.765,2.2363 -0.3073,3.8041 z m -250.9022,-0.5857 c 0,1.4918 0.3889,2.6332 1.2355,3.4836 0.8591,0.8522 2.0005,1.2492 3.4993,1.2492 h 24.3948 c 1.3043,0 2.546,-0.306 3.6622,-0.9601 1.041,-0.6102 1.9379,-1.5044 2.6339,-2.7098 l 70.5817,-119.5235 v 118.4606 c 0,1.5019 0.3952,2.6458 1.2481,3.493 0.8528,0.8454 2.0005,1.2398 3.4929,1.2398 h 23.0653 c 1.505,0 2.6464,-0.3944 3.4931,-1.2323 0.8528,-0.8547 1.2479,-1.9986 1.2479,-3.5005 v -174.9254 c 0,-1.5069 -0.3951,-2.6559 -1.2417,-3.5056 -0.8529,-0.8598 -1.9943,-1.2567 -3.4993,-1.2567 h -24.1125 c -1.3295,0 -2.5775,0.311 -3.6938,0.9701 -1.0221,0.607 -1.9126,1.5089 -2.6088,2.7311 l -70.8575,119.2376 v -118.1765 c 0,-1.5145 -0.3952,-2.6653 -1.2417,-3.5156 -0.8592,-0.8522 -2.0069,-1.2467 -3.5057,-1.2467 h -23.0589 c -1.5114,0 -2.659,0.3995 -3.5056,1.2567 -0.8466,0.8523 -1.2292,2.0011 -1.2292,3.5056 z m -98.5761,-128.1151 c 1.0035,3.1431 1.7623,8.0716 2.2765,14.7642 0.5205,6.8299 0.7839,15.4621 0.7839,25.8878 0,10.4259 -0.2634,19.0587 -0.7839,25.8836 -0.5142,6.6951 -1.273,11.621 -2.2765,14.7616 -2.6275,7.3955 -6.547,12.9587 -11.7771,16.643 -5.2302,3.6868 -11.8525,5.5506 -19.9047,5.5506 -7.8953,0 -14.4424,-1.8569 -19.6348,-5.5211 -5.2177,-3.6868 -9.156,-9.26 -11.7961,-16.68 -0.9971,-3.1356 -1.7497,-8.0572 -2.2576,-14.7541 -0.5205,-6.8224 -0.7839,-15.4553 -0.7839,-25.8836 0,-10.4257 0.2634,-19.0579 0.7839,-25.8878 0.5079,-6.6951 1.2605,-11.6211 2.2513,-14.7567 2.6464,-7.42 6.5847,-12.9931 11.796,-16.6749 5.1988,-3.6699 11.7459,-5.5192 19.6412,-5.5192 8.0522,0 14.6745,1.8594 19.9047,5.5412 5.2301,3.6817 9.1496,9.2448 11.7771,16.6454 z m -97.2842,-9.5535 c -1.6241,4.9141 -2.847,11.5621 -3.656,19.9548 -0.809,8.3582 -1.2103,18.436 -1.2103,30.2507 0,11.8099 0.4013,21.8857 1.2103,30.2439 0.809,8.3927 2.0319,15.0338 3.6623,19.9523 4.7599,14.5534 12.9938,25.7462 24.0875,33.3279 11.1877,7.6377 25.2413,11.5854 41.5086,11.5854 16.3928,0 30.4966,-3.9402 41.7095,-11.5684 11.1437,-7.5793 19.3903,-18.7765 24.1501,-33.3449 1.6368,-4.9116 2.8597,-11.5553 3.6686,-19.9523 0.8028,-8.3582 1.2104,-18.434 1.2104,-30.2439 0,-11.8166 -0.4076,-21.8925 -1.2104,-30.2507 -0.8089,-8.4002 -2.0318,-15.0456 -3.6686,-19.9548 -4.7598,-14.571 -13.0064,-25.7756 -24.1439,-33.3599 -11.2128,-7.6308 -25.3165,-11.5746 -41.7157,-11.5746 -16.2673,0 -30.3209,3.9464 -41.5024,11.5921 -11.0936,7.5818 -19.3338,18.784 -24.1,33.3424 z m -99.7926,137.6686 c 0,1.4944 0.4013,2.6432 1.2542,3.493 0.8466,0.8428 1.9942,1.2398 3.4804,1.2398 h 25.9877 c 1.4925,0 2.6338,-0.397 3.4867,-1.2398 0.8529,-0.8472 1.248,-1.9936 1.248,-3.493 v -174.9254 c 0,-1.5019 -0.3951,-2.6508 -1.2417,-3.5005 -0.8404,-0.8623 -1.988,-1.2618 -3.493,-1.2618 h -25.9877 c -1.4925,0 -2.6463,0.3969 -3.4867,1.2492 -0.8529,0.8478 -1.2479,1.9986 -1.2479,3.5131 z M 7948.64,2029.6355 c -6.0829,2.3003 -11.6392,4.946 -16.5809,7.8979 -4.9667,2.9644 -9.3377,6.2442 -13.0313,9.7961 l -0.032,0.025 c -0.9721,0.9726 -1.5741,2.0261 -1.7434,3.1481 -0.1881,1.2442 0.1505,2.452 1.0724,3.6009 5.412,6.31 10.987,13.1938 16.5871,19.2592 0.9971,0.9896 1.9817,1.5948 3.0917,1.7246 1.2166,0.1399 2.3265,-0.2721 3.4365,-1.3275 7.908,-6.2148 15.8033,-10.8742 23.7301,-13.9659 7.8953,-3.0841 15.8597,-4.6249 23.9557,-4.6249 10.0339,0 18.0233,2.3761 23.4855,6.5577 5.3994,4.1302 8.3469,10.1028 8.3469,17.319 0,6.2348 -1.9504,11.1338 -6.5847,14.7886 -4.8915,3.8655 -12.7743,6.5063 -24.4512,8.0402 l -9.5509,1.342 c -18.594,2.575 -32.5661,8.2629 -41.9289,17.1089 -9.4883,8.9634 -14.2167,21.0667 -14.2167,36.3652 0,17.0838 6.2398,31.2259 17.3146,41.1004 10.9808,9.7817 26.6837,15.3261 45.7417,15.3261 11.7271,0 22.5322,-1.554 32.4469,-4.6306 9.9398,-3.0842 18.9702,-7.6997 27.1039,-13.8141 l 0.038,-0.025 c 1.0912,-0.8598 1.6807,-1.8883 1.8438,-3.0127 0.1693,-1.1589 -0.138,-2.3203 -0.7965,-3.4153 -4.1515,-6.4523 -8.4912,-13.6447 -12.8872,-19.8469 -0.8403,-1.041 -1.8437,-1.6907 -2.9412,-1.9258 -1.1539,-0.2472 -2.3329,-0.037 -3.4679,0.6421 l -0.069,0.042 c -6.9923,4.5396 -13.9972,7.9812 -21.0146,10.274 -6.9735,2.2858 -13.9847,3.4416 -21.0585,3.4416 -8.3782,0 -14.9503,-2.1504 -19.4029,-5.94 -4.4713,-3.7997 -6.8668,-9.3434 -6.8668,-16.0849 0,-5.7933 2.5021,-10.5337 7.4625,-14.1859 5.2553,-3.8681 13.2259,-6.5897 23.8617,-8.1256 l 9.551,-1.3275 c 18.3305,-2.5844 32.1709,-8.3413 41.4711,-17.3367 9.4005,-9.093 14.1289,-21.3927 14.1289,-36.9527 0,-17.5278 -6.6035,-32.2963 -19.0769,-42.5753 -11.8775,-9.7887 -29.0541,-15.4502 -50.8715,-15.4502 -6.5972,0 -13.0816,0.5443 -19.4343,1.6587 -6.3401,1.1119 -12.5673,2.8069 -18.6628,5.1097 z m -171.8731,65.8251 h 42.9071 l -21.3345,62.574 z m 4.3458,110.6248 c 0.3888,1.3395 1.0223,2.3466 1.9504,3.0571 0.9532,0.7199 2.0946,1.0605 3.4867,1.0605 h 24.3948 c 1.3796,0 2.5272,-0.3406 3.4742,-1.0605 0.9469,-0.7155 1.5866,-1.7345 1.9754,-3.1092 l 60.9493,-174.9059 c 0.4577,-1.5678 0.37,-2.8145 -0.3136,-3.8041 -0.7275,-1.051 -1.8814,-1.5408 -3.5433,-1.5408 h -25.9813 c -1.3733,0 -2.521,0.338 -3.4805,1.0679 -0.9093,0.7005 -1.5426,1.6977 -1.9315,3.0228 l -11.4448,33.5456 h -64.8624 l -11.4323,-33.4967 c -0.3951,-1.3521 -1.0348,-2.3611 -1.9567,-3.0717 -0.9531,-0.7299 -2.0945,-1.0679 -3.4804,-1.0679 h -25.7117 c -1.6493,0 -2.8157,0.4898 -3.5369,1.5502 -0.6836,0.9877 -0.7651,2.2294 -0.3136,3.7947 z m -250.9272,-0.6152 c 0,1.5038 0.3951,2.6533 1.2543,3.5005 0.8465,0.8379 1.9941,1.2323 3.4993,1.2323 h 24.3758 c 1.317,0 2.5587,-0.306 3.6812,-0.9601 1.0348,-0.6102 1.9253,-1.5044 2.6151,-2.7098 l 70.6068,-119.5235 v 118.4606 c 0,1.5019 0.3888,2.6458 1.2416,3.493 0.8529,0.8428 2.0005,1.2398 3.4931,1.2398 h 23.0715 c 1.4926,0 2.6339,-0.397 3.4805,-1.2398 0.8592,-0.8472 1.248,-1.9936 1.248,-3.493 v -174.9254 c 0,-1.5019 -0.3888,-2.6508 -1.2354,-3.5005 -0.8404,-0.8623 -1.9879,-1.2618 -3.4931,-1.2618 h -24.1188 c -1.3294,0 -2.5711,0.3035 -3.6937,0.9701 -1.041,0.6196 -1.944,1.5283 -2.6401,2.7606 l -70.8263,119.2132 v -118.1816 c 0,-1.5145 -0.3951,-2.6653 -1.2417,-3.5156 -0.8592,-0.8522 -2.0068,-1.2467 -3.5118,-1.2467 h -23.0527 c -1.4988,0 -2.6465,0.3945 -3.4993,1.2467 -0.8592,0.8648 -1.2543,2.0111 -1.2543,3.5156 z m -191.9596,0 c 0,1.5019 0.395,2.6458 1.2417,3.493 0.8591,0.8454 2.0067,1.2398 3.4993,1.2398 h 25.9813 c 1.4925,0 2.6338,-0.397 3.4867,-1.2398 0.8529,-0.8472 1.248,-1.9911 1.248,-3.493 v -174.9254 c 0,-1.5045 -0.3951,-2.6533 -1.2354,-3.5005 -0.8467,-0.8623 -1.9943,-1.2618 -3.4993,-1.2618 h -25.9813 c -1.4926,0 -2.6402,0.3969 -3.4993,1.2567 -0.8404,0.8497 -1.2417,1.9987 -1.2417,3.5056 z m -162.523,-175.8391 c -6.0892,2.2996 -11.6455,4.9454 -16.5872,7.8973 -4.9667,2.9618 -9.3251,6.2466 -13.0063,9.7936 -1.0097,0.9971 -1.618,2.0506 -1.7873,3.1726 -0.1881,1.2466 0.1442,2.4445 1.0473,3.5864 5.5562,6.1533 11.2755,12.9048 16.6123,19.2763 0.9845,0.987 1.9629,1.5947 3.0916,1.722 1.2228,0.1348 2.3266,-0.2766 3.4428,-1.3251 7.9017,-6.2146 15.7971,-10.8717 23.7301,-13.9658 7.8953,-3.0816 15.866,-4.625 23.9621,-4.625 10.0275,0 18.0169,2.3762 23.4791,6.5628 5.3994,4.1302 8.3468,10.1028 8.3468,17.3146 0,6.2316 -1.9503,11.1263 -6.5909,14.7886 -4.8915,3.8655 -12.7869,6.5063 -24.4638,8.0396 l -9.5508,1.3427 c -18.594,2.5718 -32.5599,8.2578 -41.929,17.1083 -9.4882,8.9608 -14.2104,21.0648 -14.2104,36.3626 0,17.0838 6.2336,31.2259 17.3147,41.1004 10.9744,9.7843 26.6837,15.3273 45.7354,15.3273 11.7271,0 22.5322,-1.5502 32.4469,-4.6269 9.9398,-3.0841 18.9765,-7.7022 27.1227,-13.8165 l 0.051,-0.032 c 1.0786,-0.8623 1.6555,-1.8939 1.8124,-3.0133 0.1693,-1.1538 -0.1443,-2.3122 -0.7965,-3.4027 -4.095,-6.369 -8.5225,-13.8159 -12.8934,-19.8595 -0.8404,-1.0385 -1.8376,-1.685 -2.9287,-1.9177 -1.1602,-0.2477 -2.3392,-0.037 -3.4742,0.6416 l -0.062,0.042 c -7.0049,4.5391 -13.9972,7.9781 -21.0147,10.2759 -6.9672,2.2808 -13.9845,3.4373 -21.0584,3.4373 -8.3846,0 -14.9442,-2.1486 -19.3966,-5.9357 -4.4714,-3.7972 -6.8607,-9.3384 -6.8607,-16.0867 0,-5.7965 2.5021,-10.5362 7.4626,-14.1886 5.2553,-3.8661 13.2197,-6.5871 23.8681,-8.1261 l 9.5258,-1.3275 c 18.3431,-2.5844 32.1835,-8.3407 41.4899,-17.3335 9.4067,-9.0932 14.1289,-21.3934 14.1289,-36.9533 0,-17.5229 -6.6098,-32.2914 -19.0831,-42.5704 -11.8775,-9.7962 -29.0542,-15.4528 -50.8653,-15.4528 -6.6035,0 -13.0942,0.5419 -19.4467,1.6587 -6.3465,1.1119 -12.5737,2.8076 -18.663,5.1079 z m -171.8606,65.8295 h 42.9008 l -21.3281,62.574 z m 4.3396,110.5953 c 0.3888,1.3596 1.0284,2.3737 1.9629,3.0866 0.9595,0.7199 2.1071,1.0605 3.4867,1.0605 h 24.3822 c 1.3859,0 2.5273,-0.3406 3.4805,-1.0605 0.9407,-0.7155 1.5866,-1.7345 1.9754,-3.1092 l 60.9492,-174.9059 c 0.4516,-1.5653 0.37,-2.807 -0.3072,-3.7947 -0.7275,-1.0579 -1.8814,-1.5502 -3.5432,-1.5502 h -25.9814 c -1.3796,0 -2.5273,0.338 -3.4805,1.0679 -0.9281,0.7106 -1.5677,1.7196 -1.9566,3.0717 l -11.4198,33.4967 h -64.8686 l -11.4261,-33.5456 c -0.4076,-1.3302 -1.0347,-2.3223 -1.9503,-3.0228 -0.9532,-0.7299 -2.1008,-1.0679 -3.4867,-1.0679 h -25.7179 c -1.6494,0 -2.8158,0.4872 -3.5433,1.5408 -0.6772,0.9896 -0.7588,2.2363 -0.3072,3.8041 z M 6842.862,2025.7825 c -1.2793,0 -2.383,0.3524 -3.3111,1.1093 -0.8592,0.6937 -1.48,1.6882 -1.8626,3.0209 l -56.9921,174.9743 c -0.4829,1.6512 -0.2697,2.9542 0.5643,3.9438 0.7902,0.9338 1.9943,1.3722 3.5558,1.3722 h 25.7117 c 1.3859,0 2.5273,-0.338 3.4742,-1.0535 0.9406,-0.7225 1.5866,-1.7415 1.9754,-3.1087 l 38.6428,-122.5393 37.1126,122.5713 c 0.4076,1.3546 1.0473,2.3643 1.9692,3.0697 0.9594,0.7199 2.1008,1.0605 3.493,1.0605 h 25.7117 c 1.549,0 2.7467,-0.4384 3.5369,-1.3722 0.8403,-0.9964 1.0536,-2.2902 0.5957,-3.9263 l -57.2806,-175.0044 c -0.395,-1.3225 -1.0159,-2.3146 -1.8625,-3.0083 -0.9281,-0.7569 -2.0256,-1.1093 -3.3049,-1.1093 z m -145.4529,51.5651 c 0.9909,3.1431 1.7497,8.0766 2.2702,14.7843 0.5205,6.8241 0.7902,15.452 0.7902,25.8703 0,10.4188 -0.2697,19.0466 -0.7902,25.8709 -0.5205,6.7076 -1.2793,11.6361 -2.2702,14.7767 -2.6401,7.3931 -6.5596,12.9537 -11.7897,16.6405 -5.2301,3.6893 -11.8587,5.5487 -19.8921,5.5487 -7.8954,0 -14.4424,-1.8569 -19.6412,-5.5217 -5.2113,-3.6843 -9.1496,-9.2575 -11.7961,-16.6775 -0.997,-3.1425 -1.7496,-8.0716 -2.2638,-14.7837 -0.5268,-6.8198 -0.7965,-15.4426 -0.7965,-25.8539 0,-10.4107 0.2697,-19.0311 0.7965,-25.856 0.5142,-6.717 1.2731,-11.6505 2.2638,-14.7986 2.6402,-7.4125 6.5785,-12.9806 11.7961,-16.665 5.1925,-3.6692 11.7396,-5.5192 19.6412,-5.5192 8.0396,0 14.662,1.8569 19.8921,5.5412 5.2301,3.6843 9.1496,9.2431 11.7897,16.643 z m -97.2842,-9.551 c -1.643,4.9116 -2.8659,11.5552 -3.6749,19.9549 -0.809,8.3631 -1.2103,18.439 -1.2103,30.2507 0,11.8104 0.4013,21.8831 1.2103,30.2438 0.809,8.3977 2.0319,15.0407 3.6749,19.9522 4.7598,14.5535 13.0001,25.7488 24.0938,33.3281 11.1877,7.6426 25.235,11.584 41.5086,11.584 16.3928,0 30.4965,-3.9389 41.7031,-11.5646 11.1375,-7.5818 19.3842,-18.7815 24.1502,-33.3475 1.6367,-4.9115 2.8658,-11.5545 3.6749,-19.9522 0.8026,-8.3607 1.2103,-18.4334 1.2103,-30.2438 0,-11.8143 -0.4077,-21.8926 -1.2103,-30.2507 -0.8091,-8.3997 -2.0382,-15.0433 -3.6749,-19.9549 -4.766,-14.5729 -13.0127,-25.7781 -24.1502,-33.3593 -11.2066,-7.6307 -25.3103,-11.5728 -41.7031,-11.5728 -16.2736,0 -30.3209,3.949 -41.5086,11.5897 -11.0937,7.5868 -19.334,18.7815 -24.0938,33.3424 z m -202.9593,137.6736 c 0,1.4944 0.4014,2.6432 1.2479,3.493 0.8529,0.8454 2.0005,1.2398 3.5057,1.2398 h 24.3696 c 1.3169,0 2.565,-0.306 3.6812,-0.9601 1.0348,-0.6102 1.9315,-1.502 2.6213,-2.7098 l 70.6068,-119.5286 v 118.4657 c 0,1.4894 0.3825,2.6307 1.2354,3.4836 0.8403,0.8522 1.9879,1.2492 3.4931,1.2492 h 23.0527 c 1.5114,0 2.6589,-0.3944 3.5055,-1.2323 0.8529,-0.8573 1.2543,-2.0061 1.2543,-3.5005 v -174.9254 c 0,-1.5145 -0.3951,-2.6653 -1.2479,-3.5156 -0.8592,-0.8522 -2.0069,-1.2467 -3.5119,-1.2467 h -24.1188 c -1.317,0 -2.5649,0.311 -3.6812,0.9701 -1.0222,0.607 -1.919,1.5089 -2.6213,2.7286 l -70.8326,119.2376 v -118.174 c 0,-1.5045 -0.3888,-2.6508 -1.2416,-3.5056 -0.8655,-0.8622 -2.0193,-1.2567 -3.5182,-1.2567 h -23.0464 c -1.4988,0 -2.6528,0.3945 -3.5057,1.2517 -0.8528,0.8453 -1.2479,1.9961 -1.2479,3.5106 z m -100.2191,0 c 0,1.5019 0.3951,2.6458 1.2417,3.493 0.8591,0.8454 2.0068,1.2398 3.5056,1.2398 h 25.9688 c 1.5051,0 2.6527,-0.3944 3.5056,-1.2323 0.8528,-0.8573 1.2479,-2.0061 1.2479,-3.5005 v -174.9254 c 0,-1.5145 -0.3951,-2.6653 -1.2417,-3.5156 -0.8591,-0.8522 -2.0067,-1.2467 -3.5118,-1.2467 h -25.9688 c -1.4988,0 -2.6527,0.3969 -3.5056,1.2567 -0.8466,0.8497 -1.2417,1.9987 -1.2417,3.5056 z m -295.1074,0 c 0,1.5019 0.3951,2.6458 1.2417,3.493 0.8591,0.8428 2.0005,1.2398 3.493,1.2398 h 24.3885 c 1.3106,0 2.546,-0.306 3.6686,-0.9601 1.0347,-0.6102 1.9315,-1.5044 2.6339,-2.7098 l 70.5817,-119.5167 v 118.4538 c 0,1.4918 0.3951,2.6357 1.2417,3.4836 0.8529,0.8522 2.0005,1.2492 3.493,1.2492 h 23.0715 c 1.4988,0 2.6402,-0.397 3.4868,-1.2398 0.8591,-0.8472 1.2542,-1.9936 1.2542,-3.493 v -174.9254 c 0,-1.5019 -0.3951,-2.6508 -1.2417,-3.5005 -0.8466,-0.8623 -1.9879,-1.2618 -3.4993,-1.2618 h -24.1188 c -1.3295,0 -2.5775,0.311 -3.6937,0.9701 -1.0284,0.6096 -1.9127,1.5114 -2.6088,2.7311 l -70.8514,119.2646 v -118.2035 c 0,-1.5145 -0.395,-2.6653 -1.2479,-3.5156 -0.8592,-0.8522 -2.0068,-1.2467 -3.5056,-1.2467 h -23.0527 c -1.4988,0 -2.6527,0.3995 -3.4993,1.2567 -0.8403,0.8523 -1.2354,2.0011 -1.2354,3.5056 z m -149.5793,-110.0096 h 42.8946 l -21.3281,62.5671 z m 4.3522,110.6831 c 0.395,1.3157 1.0284,2.3028 1.9377,2.9988 0.9595,0.7199 2.1009,1.0605 3.4931,1.0605 h 24.3696 c 1.3985,0 2.5461,-0.338 3.4931,-1.0535 0.9469,-0.7275 1.5865,-1.7491 1.9753,-3.1162 l 60.9681,-174.9329 c 0.4328,-1.5552 0.3512,-2.7875 -0.3324,-3.7771 -0.7274,-1.051 -1.8813,-1.5408 -3.5494,-1.5408 h -25.9688 c -1.3922,0 -2.5336,0.338 -3.4868,1.0679 -0.9156,0.7005 -1.5426,1.6926 -1.944,3.0228 l -11.4449,33.5456 h -64.8624 l -11.4385,-33.5456 c -0.3888,-1.3251 -1.016,-2.3223 -1.9316,-3.0228 -0.9532,-0.7299 -2.0946,-1.0679 -3.4867,-1.0679 h -25.7054 c -1.6619,0 -2.8221,0.4872 -3.5433,1.5408 -0.6898,0.9921 -0.7713,2.2294 -0.3324,3.7871 z m -201.4229,-148.0748 h 26.2573 c 9.5321,0 17.2457,1.8154 23.128,5.4013 5.8133,3.545 9.9084,8.8875 12.2726,15.9719 l 0.019,0.051 c 0.9845,2.7217 1.7496,7.2488 2.2638,13.5959 0.5267,6.4649 0.7901,14.7666 0.7901,24.9177 0,10.1518 -0.2634,18.4485 -0.7901,24.9134 -0.5142,6.347 -1.2793,10.8717 -2.2638,13.6003 l -0.019,0.052 c -2.3642,7.082 -6.4593,12.415 -12.2726,15.9626 -5.8761,3.5833 -13.5896,5.3962 -23.128,5.3962 h -26.2573 z m -35.4758,147.4013 c 0,1.5038 0.4013,2.6533 1.2605,3.5005 0.8465,0.8379 2.0005,1.2323 3.4992,1.2323 h 64.3921 c 16.1985,0 29.443,-3.4322 39.7967,-10.3204 10.4101,-6.9252 17.8477,-17.2996 22.3692,-31.145 l 0.013,-0.025 c 1.5114,-4.7993 2.6716,-11.5333 3.4492,-20.1755 0.7588,-8.4171 1.1539,-18.6027 1.1539,-30.5305 0,-11.9321 -0.3951,-22.1176 -1.1539,-30.5372 -0.7776,-8.6498 -1.9378,-15.3838 -3.4492,-20.1875 l -0.013,-0.025 c -4.5215,-13.8385 -11.9591,-24.2155 -22.3692,-31.1432 -10.3599,-6.8958 -23.5982,-10.3323 -39.7967,-10.3323 h -64.3921 c -1.4987,0 -2.6463,0.3945 -3.4992,1.2467 -0.8654,0.8648 -1.2605,2.0111 -1.2605,3.5156 z m 1759.0429,138.5063 c -1.4988,0 -2.6527,0.4014 -3.5056,1.2542 -0.8528,0.8403 -1.2479,1.9943 -1.2479,3.5056 v 147.3781 h -46.6698 c -1.5052,0 -2.6464,0.3951 -3.4931,1.2417 -0.8466,0.8592 -1.2417,2.0068 -1.2417,3.5119 v 22.7893 c 0,1.4988 0.3951,2.6401 1.2417,3.493 0.8467,0.8592 1.9879,1.248 3.4931,1.248 h 128.8092 c 1.5176,0 2.6652,-0.3888 3.5119,-1.2355 0.8466,-0.8528 1.2417,-2.0005 1.2417,-3.5055 v -22.7893 c 0,-1.5114 -0.3951,-2.659 -1.2417,-3.5119 -0.8467,-0.8466 -1.9943,-1.2417 -3.5119,-1.2417 h -46.6698 v -147.3781 c 0,-1.5051 -0.3951,-2.6527 -1.2354,-3.4993 -0.8529,-0.8654 -2.0068,-1.2605 -3.5119,-1.2605 z m -222.4374,179.6808 c 0,1.505 0.3888,2.6527 1.2417,3.5055 0.8591,0.8403 2.0131,1.2355 3.5118,1.2355 h 112.9057 c 1.4988,0 2.6464,-0.3888 3.493,-1.2355 0.8466,-0.8654 1.2417,-2.0067 1.2417,-3.5055 v -22.7893 c 0,-1.5051 -0.3951,-2.6527 -1.2417,-3.5056 -0.8466,-0.8529 -1.9942,-1.248 -3.493,-1.248 h -82.1833 v -42.9824 h 69.1894 c 1.5052,0 2.6465,-0.395 3.4993,-1.2479 0.8593,-0.8592 1.2543,-2.0005 1.2543,-3.4868 v -22.7956 c 0,-1.5113 -0.395,-2.6653 -1.2417,-3.5118 -0.8591,-0.8466 -2.0067,-1.248 -3.5119,-1.248 h -69.1894 v -44.5691 h 82.1833 c 1.4988,0 2.6464,-0.4012 3.493,-1.2416 0.8466,-0.8654 1.2417,-2.013 1.2417,-3.4993 v -22.7956 c 0,-1.5051 -0.3951,-2.6527 -1.2417,-3.4993 -0.8466,-0.8591 -1.9942,-1.2605 -3.493,-1.2605 h -112.9057 c -1.5113,0 -2.6589,0.3951 -3.5118,1.248 -0.8529,0.8465 -1.2417,2.0005 -1.2417,3.5118 z M 6993.821,2347.8332 c -6.0893,2.3016 -11.6518,4.9479 -16.5935,7.9017 -4.9667,2.96 -9.3315,6.2398 -13.0126,9.7892 l -0.019,0.025 c -0.9845,0.9782 -1.5929,2.0318 -1.7622,3.1543 -0.1882,1.2543 0.1505,2.4584 1.0723,3.5996 4.44,5.92 11.5076,13.6147 16.5747,19.2588 0.9845,0.9845 1.9754,1.5991 3.1042,1.7245 1.2354,0.1443 2.3705,-0.2822 3.4993,-1.3859 7.864,-6.1896 15.7343,-10.8303 23.661,-13.9219 7.8954,-3.0792 15.866,-4.6157 23.962,-4.6157 10.0339,0 18.0233,2.3831 23.4855,6.5597 5.3994,4.1327 8.3468,10.1028 8.3468,17.3146 0,6.2336 -1.9565,11.1375 -6.5909,14.7937 -4.8978,3.8692 -12.7869,6.5094 -24.4575,8.0396 l -9.5571,1.342 c -18.594,2.5774 -32.5661,8.2591 -41.929,17.1014 -9.4819,8.9615 -14.2104,21.0585 -14.2104,36.3726 0,17.0826 6.2398,31.2241 17.3147,41.1011 10.9808,9.783 26.69,15.3266 45.7355,15.3266 11.7332,0 22.5446,-1.5552 32.4594,-4.6343 9.9335,-3.0855 18.9702,-7.701 27.1101,-13.8154 l 0.05,-0.032 c 1.0849,-0.8592 1.6618,-1.9002 1.8186,-3.0164 0.1568,-1.154 -0.1505,-2.3078 -0.8027,-3.399 -4.1892,-6.5157 -8.4849,-13.5205 -12.8809,-19.8419 -0.8278,-1.0472 -1.8375,-1.6932 -2.9349,-1.9315 -1.1602,-0.2508 -2.3454,-0.038 -3.4805,0.6397 l -0.062,0.044 c -6.9924,4.5403 -13.991,7.9831 -21.0083,10.2784 -6.9736,2.2827 -13.9847,3.4429 -21.0648,3.4429 -8.3845,0 -14.9567,-2.1448 -19.403,-5.9263 -4.465,-3.8128 -6.8606,-9.3565 -6.8606,-16.098 0,-5.7946 2.5022,-10.5418 7.469,-14.1916 5.2552,-3.8693 13.2196,-6.591 23.8679,-8.1274 l 9.5259,-1.3295 c 18.3431,-2.5837 32.1835,-8.3406 41.4899,-17.3334 9.4004,-9.0932 14.1226,-21.3909 14.1226,-36.9496 0,-17.5279 -6.5973,-32.2964 -19.0768,-42.5748 -11.8775,-9.7956 -29.0543,-15.4521 -50.8653,-15.4521 -6.6034,0 -13.0878,0.5456 -19.4405,1.6556 -6.3338,1.1163 -12.5611,2.8094 -18.6566,5.1109 z m -122.5507,175.8241 c 0,1.505 0.3951,2.6527 1.2417,3.5055 0.8654,0.8403 2.0131,1.2355 3.5118,1.2355 h 25.9626 c 1.5113,0 2.6526,-0.3952 3.5055,-1.2355 0.8591,-0.8528 1.2543,-2.0005 1.2543,-3.5055 v -174.921 c 0,-1.5113 -0.3952,-2.6653 -1.2417,-3.5118 -0.8529,-0.8529 -2.0005,-1.248 -3.5181,-1.248 h -25.9626 c -1.5051,0 -2.6589,0.3951 -3.5118,1.248 -0.8466,0.8465 -1.2417,2.0005 -1.2417,3.5118 z m -119.9042,-74.5012 c 7.7636,0 14.1414,2.3516 18.5626,6.4342 4.4148,4.0763 6.917,9.9335 6.917,16.9258 0,7.1993 -2.4708,13.0941 -6.8418,17.1641 -4.415,4.1139 -10.824,6.4342 -18.6378,6.4342 h -37.9342 v -46.9583 z m 31.0044,-105.1796 c -1.3231,0 -2.5021,0.3135 -3.5243,0.9783 -1.016,0.6648 -1.8124,1.6431 -2.3768,2.9662 l -33.8265,68.9575 h -29.211 v -68.1422 c 0,-1.5051 -0.3951,-2.6527 -1.2417,-3.4993 -0.8529,-0.8591 -2.0005,-1.2605 -3.4993,-1.2605 h -25.9813 c -1.4926,0 -2.6402,0.4014 -3.4931,1.2605 -0.8465,0.8466 -1.2353,1.9942 -1.2353,3.4993 v 174.921 c 0,1.4988 0.3888,2.6464 1.2291,3.493 0.8528,0.8592 2.0005,1.248 3.4993,1.248 h 69.7225 c 8.5915,0 16.3865,-1.3045 23.4478,-3.9007 7.0801,-2.6151 13.4078,-6.5408 19.0455,-11.7772 5.6629,-5.2426 9.9397,-11.2504 12.7994,-17.9794 2.8534,-6.7164 4.2958,-14.1477 4.2958,-22.2249 0,-12.0092 -3.3991,-22.827 -9.4883,-31.663 -5.7507,-8.3469 -13.9094,-14.9128 -23.8617,-19.0203 l 36.8116,-71.2841 c 0.4703,-0.8341 0.6835,-1.6744 0.6835,-2.452 0,-0.7526 -0.1943,-1.455 -0.5581,-2.0695 -0.3512,-0.6021 -0.8654,-1.0974 -1.4925,-1.455 -0.671,-0.3762 -1.4612,-0.5957 -2.3203,-0.5957 z m -399.5219,179.6808 c 0,1.505 0.3951,2.6527 1.2417,3.5055 0.8654,0.8467 2.013,1.2355 3.5181,1.2355 h 24.3759 c 1.317,0 2.5649,-0.3073 3.6812,-0.9595 1.0348,-0.6146 1.9253,-1.5114 2.6151,-2.7155 l 70.6005,-119.5028 v 118.4368 c 0,1.4988 0.3825,2.6401 1.2291,3.493 0.8529,0.8528 2.0005,1.248 3.5056,1.248 h 23.0528 c 1.505,0 2.6527,-0.3952 3.4992,-1.2355 0.8592,-0.8654 1.2542,-2.0067 1.2542,-3.5055 v -174.921 c 0,-1.5051 -0.395,-2.6527 -1.2416,-3.4993 -0.8529,-0.8654 -2.0005,-1.2605 -3.5118,-1.2605 h -24.1189 c -1.3106,0 -2.5586,0.3135 -3.6811,0.9721 -1.0222,0.6083 -1.9191,1.4988 -2.6214,2.7216 l -70.8326,119.252 v -118.1859 c 0,-1.5113 -0.395,-2.6653 -1.2479,-3.5118 -0.8466,-0.8529 -1.9942,-1.248 -3.5119,-1.248 h -23.0464 c -1.5051,0 -2.6527,0.3951 -3.5056,1.248 -0.8591,0.8465 -1.2542,2.0005 -1.2542,3.5118 z m -149.573,-110.0272 h 42.9196 l -21.3531,62.6048 z m 4.3334,110.6167 c 0.3888,1.3608 1.0347,2.3767 1.9691,3.0917 0.9469,0.7211 2.0945,1.0598 3.4805,1.0598 h 24.3884 c 1.3922,0 2.5398,-0.3387 3.4868,-1.0598 0.9406,-0.7212 1.5804,-1.7435 1.9628,-3.1105 l 60.9807,-174.9273 c 0.439,-1.5552 0.3512,-2.7907 -0.3324,-3.7815 -0.7274,-1.0473 -1.8814,-1.5427 -3.5432,-1.5427 h -25.9876 c -1.386,0 -2.5336,0.3449 -3.4805,1.0724 -0.9344,0.7149 -1.5803,1.7371 -1.9691,3.1042 l -11.4073,33.4628 h -64.8624 l -11.4323,-33.5506 c -0.4076,-1.3295 -1.041,-2.3266 -1.9503,-3.0164 -0.9469,-0.7275 -2.0945,-1.0724 -3.493,-1.0724 h -25.7117 c -1.6494,0 -2.8095,0.4954 -3.537,1.549 -0.671,0.9908 -0.7525,2.2262 -0.3134,3.7752 z m -201.3852,-147.974 h 26.2761 c 9.5258,0 17.2456,1.8124 23.1279,5.3996 5.8134,3.5431 9.9022,8.8799 12.2601,15.9537 l 0.019,0.057 c 0.9846,2.7279 1.7434,7.2557 2.2576,13.5958 0.5268,6.4656 0.7902,14.7685 0.7902,24.9215 0,10.1468 -0.2634,18.4435 -0.7902,24.909 -0.5142,6.3464 -1.273,10.8742 -2.2576,13.6084 l -0.019,0.056 c -2.3579,7.0739 -6.4467,12.398 -12.2601,15.9413 -5.8823,3.587 -13.5959,5.3994 -23.1279,5.3994 h -26.2761 z m -35.4571,147.3845 c 0,1.4988 0.4013,2.6401 1.2417,3.493 0.8529,0.8592 1.9942,1.248 3.493,1.248 h 64.4109 c 16.1859,0 29.4305,-3.4241 39.7905,-10.3161 10.4037,-6.9296 17.8414,-17.302 22.3628,-31.155 l 0.013,-0.025 c 1.5052,-4.7974 2.6716,-11.5327 3.4492,-20.1742 0.7525,-8.4222 1.1476,-18.6065 1.1476,-30.528 0,-11.9277 -0.3951,-22.112 -1.1476,-30.5342 -0.7776,-8.6479 -1.944,-15.383 -3.4492,-20.1868 l -0.013,-0.025 c -4.5214,-13.8404 -11.9591,-24.2191 -22.3628,-31.1425 -10.3663,-6.8982 -23.6046,-10.3348 -39.7905,-10.3348 h -64.4109 c -1.4925,0 -2.6401,0.4014 -3.493,1.2605 -0.8404,0.8466 -1.2417,1.9942 -1.2417,3.4993 z m -149.573,-110.0272 h 42.9009 l -21.3345,62.6048 z m 4.3333,110.6167 c 0.3888,1.3608 1.0286,2.3767 1.9629,3.0917 0.9595,0.7211 2.1071,1.0598 3.4867,1.0598 h 24.3886 c 1.3796,0 2.521,-0.3387 3.4741,-1.0598 0.9407,-0.7212 1.5929,-1.7435 1.9755,-3.1105 l 60.9492,-174.9084 c 0.4515,-1.5679 0.37,-2.8096 -0.3011,-3.7941 -0.74,-1.0536 -1.8938,-1.549 -3.5494,-1.549 h -25.9814 c -1.3858,0 -2.5334,0.3449 -3.4804,1.0724 -0.9344,0.7149 -1.5804,1.7371 -1.9692,3.1042 l -11.4071,33.4628 h -64.8625 l -11.4323,-33.5506 c -0.4013,-1.3295 -1.0347,-2.3266 -1.9503,-3.0164 -0.9469,-0.7275 -2.0883,-1.0724 -3.493,-1.0724 h -25.7117 c -1.6493,0 -2.8095,0.4892 -3.5369,1.5427 -0.6836,0.9908 -0.7714,2.2325 -0.3136,3.8004 z m -164.793,-70.8514 c 7.3309,0 13.2258,2.1385 17.277,5.851 4.0825,3.7438 6.3401,9.1558 6.3401,15.6339 0,6.7165 -2.2326,12.1723 -6.2649,15.9162 -4.0449,3.7564 -9.9712,5.8636 -17.3522,5.8636 h -35.5449 v -43.2647 z m -71.0207,70.2619 c 0,1.4988 0.3951,2.6464 1.2605,3.5055 0.8465,0.8403 2.0005,1.2355 3.4992,1.2355 h 67.0574 c 18.7633,0 33.1116,-4.6093 42.8946,-12.9625 10.2031,-8.7106 15.3768,-21.3909 15.3768,-37.1 0,-9.3503 -1.806,-17.3774 -5.4558,-24.0562 -3.1544,-5.7694 -7.6634,-10.5041 -13.5457,-14.2104 5.8886,-3.1355 11.3131,-8.2967 15.3141,-15.0382 4.2079,-7.0739 6.8732,-15.9036 6.8732,-25.9437 0,-18.1299 -5.6754,-31.8511 -16.5057,-41.1136 -10.8992,-9.3127 -26.9533,-13.9972 -47.6168,-13.9972 h -64.3921 c -1.505,0 -2.6589,0.3951 -3.5118,1.248 -0.8528,0.8591 -1.2479,2.0067 -1.2479,3.5118 v 174.921" /></g></g></svg>
